{
  "source": "C:\\Users\\Peter\\Desktop\\stuff\\MIUN\\quantitative_research\\video_compression\\videos\\BVI-HD\\Bookcase_1920x1080_60fps.mp4",
  "output": "C:\\Users\\Peter\\Desktop\\stuff\\MIUN\\quantitative_research\\video_compression\\compressed_videos\\BVI-HD\\vp9\\12\\Bookcase_1920x1080_60fps_vp9.webm",
  "codec": "vp9",
  "ok": "Input #0, mov,mp4,m4a,3gp,3g2,mj2, from 'C:\\Users\\Peter\\Desktop\\stuff\\MIUN\\quantitative_research\\video_compression\\videos\\BVI-HD\\Bookcase_1920x1080_60fps.mp4':\n  Metadata:\n    major_brand     : isom\n    minor_version   : 512\n    compatible_brands: isomiso2avc1mp41\n    encoder         : Lavf54.28.101\n  Duration: 00:00:05.00, start: 0.000000, bitrate: 336321 kb/s\n  Stream #0:0[0x1](und): Video: h264 (High 4:4:4 Predictive) (avc1 / 0x31637661), yuv420p(progressive), 1920x1080, 336316 kb/s, 60 fps, 60 tbr, 60 tbn (default)\n    Metadata:\n      handler_name    : VideoHandler\n      vendor_id       : [0][0][0][0]\n[out#0/webm @ 000001f70e8210c0] Codec AVOption b:a (set bitrate (in bits/s)) has not been used for any stream. The most likely reason is either wrong type (e.g. a video option with no video streams) or that it is a private option of some decoder which was not actually used for any stream.\nStream mapping:\n  Stream #0:0 -> #0:0 (h264 (native) -> vp9 (libvpx-vp9))\nPress [q] to stop, [?] for help\n[libvpx-vp9 @ 000001f70e82b900] v1.15.2-100-g40561f514\nOutput #0, webm, to 'C:\\Users\\Peter\\Desktop\\stuff\\MIUN\\quantitative_research\\video_compression\\compressed_videos\\BVI-HD\\vp9\\12\\Bookcase_1920x1080_60fps_vp9.webm':\n  Metadata:\n    major_brand     : isom\n    minor_version   : 512\n    compatible_brands: isomiso2avc1mp41\n    encoder         : Lavf62.3.100\n  Stream #0:0(und): Video: vp9, yuv420p(tv, progressive), 1920x1080, q=2-31, 12000 kb/s, 60 fps, 1k tbn (default)\n    Metadata:\n      encoder         : Lavc62.11.100 libvpx-vp9\n      handler_name    : VideoHandler\n      vendor_id       : [0][0][0][0]\n    Side data:\n      cpb: bitrate max/min/avg: 0/0/0 buffer size: 12000000 vbv_delay: N/A\nframe=    0 fps=0.0 q=0.0 size=       0KiB time=N/A bitrate=N/A speed=N/A elapsed=0:00:01.13    \nframe=    0 fps=0.0 q=0.0 size=       0KiB time=N/A bitrate=N/A speed=N/A elapsed=0:00:01.72    \nframe=    0 fps=0.0 q=0.0 size=       0KiB time=N/A bitrate=N/A speed=N/A elapsed=0:00:02.26    \nframe=    0 fps=0.0 q=0.0 size=       0KiB time=N/A bitrate=N/A speed=N/A elapsed=0:00:02.79    \nframe=    1 fps=0.3 q=12.0 size=       1KiB time=00:00:00.01 bitrate= 303.8kbits/s speed=0.00501x elapsed=0:00:03.32    \nframe=    3 fps=0.8 q=41.0 size=       1KiB time=00:00:00.05 bitrate= 101.3kbits/s speed=0.013x elapsed=0:00:03.84    \nframe=    5 fps=1.1 q=26.0 size=       1KiB time=00:00:00.08 bitrate=  60.8kbits/s speed=0.0191x elapsed=0:00:04.37    \nframe=    8 fps=1.6 q=24.0 size=       1KiB time=00:00:00.13 bitrate=  38.0kbits/s speed=0.0272x elapsed=0:00:04.90    \nframe=    9 fps=1.6 q=24.0 size=       1KiB time=00:00:00.15 bitrate=  33.8kbits/s speed=0.0273x elapsed=0:00:05.48    \nframe=   11 fps=1.8 q=24.0 size=       1KiB time=00:00:00.18 bitrate=  27.6kbits/s speed=0.0306x elapsed=0:00:05.99    \nframe=   12 fps=1.8 q=24.0 size=       1KiB time=00:00:00.20 bitrate=  25.3kbits/s speed=0.0306x elapsed=0:00:06.52    \nframe=   14 fps=1.9 q=25.0 size=       1KiB time=00:00:00.23 bitrate=  21.7kbits/s speed=0.0324x elapsed=0:00:07.19    \nframe=   15 fps=1.9 q=21.0 size=       1KiB time=00:00:00.25 bitrate=  20.3kbits/s speed=0.0318x elapsed=0:00:07.86    \nframe=   17 fps=2.0 q=24.0 size=       1KiB time=00:00:00.28 bitrate=  17.9kbits/s speed=0.0337x elapsed=0:00:08.40    \nframe=   19 fps=2.1 q=24.0 size=       1KiB time=00:00:00.31 bitrate=  16.0kbits/s speed=0.0352x elapsed=0:00:08.98    \nframe=   21 fps=2.2 q=24.0 size=       1KiB time=00:00:00.35 bitrate=  14.5kbits/s speed=0.0367x elapsed=0:00:09.53    \nframe=   23 fps=2.3 q=24.0 size=       1KiB time=00:00:00.38 bitrate=  13.2kbits/s speed=0.0381x elapsed=0:00:10.04    \nframe=   25 fps=2.4 q=14.0 size=       1KiB time=00:00:00.41 bitrate=  12.2kbits/s speed=0.0394x elapsed=0:00:10.57    \nframe=   27 fps=2.4 q=20.0 size=       1KiB time=00:00:00.43 bitrate=  11.7kbits/s speed=0.039x elapsed=0:00:11.11    \nframe=   28 fps=2.4 q=25.0 size=       1KiB time=00:00:00.46 bitrate=  10.9kbits/s speed=0.0398x elapsed=0:00:11.72    \nframe=   28 fps=2.2 q=25.0 size=       1KiB time=00:00:00.46 bitrate=  10.9kbits/s speed=0.0375x elapsed=0:00:12.44    \nframe=   28 fps=2.2 q=25.0 size=       1KiB time=00:00:00.46 bitrate=  10.9kbits/s speed=0.0359x elapsed=0:00:12.98    \nframe=   29 fps=2.1 q=23.0 size=       1KiB time=00:00:00.48 bitrate=  10.5kbits/s speed=0.0358x elapsed=0:00:13.51    \nframe=   29 fps=2.1 q=23.0 size=       1KiB time=00:00:00.48 bitrate=  10.5kbits/s speed=0.0344x elapsed=0:00:14.06    \nframe=   30 fps=2.1 q=24.0 size=       1KiB time=00:00:00.50 bitrate=  10.1kbits/s speed=0.0342x elapsed=0:00:14.63    \nframe=   30 fps=2.0 q=24.0 size=       1KiB time=00:00:00.50 bitrate=  10.1kbits/s speed=0.0329x elapsed=0:00:15.18    \nframe=   31 fps=2.0 q=24.0 size=       1KiB time=00:00:00.51 bitrate=   9.8kbits/s speed=0.0328x elapsed=0:00:15.73    \nframe=   32 fps=2.0 q=24.0 size=       1KiB time=00:00:00.53 bitrate=   9.5kbits/s speed=0.0328x elapsed=0:00:16.27    \nframe=   32 fps=1.9 q=24.0 size=       1KiB time=00:00:00.53 bitrate=   9.5kbits/s speed=0.0316x elapsed=0:00:16.88    \nframe=   32 fps=1.8 q=24.0 size=       1KiB time=00:00:00.53 bitrate=   9.5kbits/s speed=0.0304x elapsed=0:00:17.52    \nframe=   33 fps=1.8 q=24.0 size=       1KiB time=00:00:00.55 bitrate=   9.2kbits/s speed=0.0304x elapsed=0:00:18.10    \nframe=   34 fps=1.8 q=24.0 size=       1KiB time=00:00:00.56 bitrate=   8.9kbits/s speed=0.0304x elapsed=0:00:18.62    \nframe=   35 fps=1.8 q=24.0 size=       1KiB time=00:00:00.58 bitrate=   8.7kbits/s speed=0.0304x elapsed=0:00:19.20    \nframe=   36 fps=1.8 q=21.0 size=       1KiB time=00:00:00.60 bitrate=   8.4kbits/s speed=0.0302x elapsed=0:00:19.88    \nframe=   36 fps=1.8 q=21.0 size=       1KiB time=00:00:00.60 bitrate=   8.4kbits/s speed=0.0293x elapsed=0:00:20.50    \nframe=   38 fps=1.8 q=26.0 size=       1KiB time=00:00:00.63 bitrate=   8.0kbits/s speed=0.0301x elapsed=0:00:21.06    \nframe=   39 fps=1.8 q=18.0 size=       1KiB time=00:00:00.65 bitrate=   7.8kbits/s speed=0.0301x elapsed=0:00:21.61    \nframe=   41 fps=1.8 q=19.0 size=       1KiB time=00:00:00.66 bitrate=   7.6kbits/s speed=0.0299x elapsed=0:00:22.26    \nframe=   42 fps=1.8 q=25.0 size=       1KiB time=00:00:00.70 bitrate=   7.2kbits/s speed=0.0305x elapsed=0:00:22.97    \nframe=   44 fps=1.9 q=25.0 size=       1KiB time=00:00:00.71 bitrate=   7.1kbits/s speed=0.0303x elapsed=0:00:23.66    \nframe=   45 fps=1.8 q=19.0 size=       1KiB time=00:00:00.75 bitrate=   6.8kbits/s speed=0.0308x elapsed=0:00:24.34    \nframe=   46 fps=1.8 q=26.0 size=       1KiB time=00:00:00.76 bitrate=   6.6kbits/s speed=0.0306x elapsed=0:00:25.07    \nframe=   48 fps=1.9 q=27.0 size=       1KiB time=00:00:00.80 bitrate=   6.3kbits/s speed=0.0311x elapsed=0:00:25.73    \nframe=   48 fps=1.8 q=27.0 size=       1KiB time=00:00:00.80 bitrate=   6.3kbits/s speed=0.0302x elapsed=0:00:26.47    \nframe=   50 fps=1.8 q=16.0 size=       1KiB time=00:00:00.81 bitrate=   6.2kbits/s speed=0.0299x elapsed=0:00:27.27    \nframe=   51 fps=1.8 q=22.0 size=       1KiB time=00:00:00.85 bitrate=   6.0kbits/s speed=0.0303x elapsed=0:00:28.05    \nframe=   52 fps=1.8 q=17.0 size=       1KiB time=00:00:00.86 bitrate=   5.8kbits/s speed=0.03x elapsed=0:00:28.88    \nframe=   53 fps=1.8 q=20.0 size=       1KiB time=00:00:00.88 bitrate=   5.7kbits/s speed=0.0297x elapsed=0:00:29.72    \nframe=   54 fps=1.8 q=19.0 size=       1KiB time=00:00:00.90 bitrate=   5.6kbits/s speed=0.0296x elapsed=0:00:30.44    \nframe=   56 fps=1.8 q=22.0 size=       1KiB time=00:00:00.91 bitrate=   5.5kbits/s speed=0.0296x elapsed=0:00:30.99    \nframe=   57 fps=1.8 q=23.0 size=       1KiB time=00:00:00.93 bitrate=   5.4kbits/s speed=0.0295x elapsed=0:00:31.68    \nframe=   58 fps=1.8 q=22.0 size=       1KiB time=00:00:00.95 bitrate=   5.3kbits/s speed=0.0292x elapsed=0:00:32.48    \nframe=   59 fps=1.8 q=23.0 size=       1KiB time=00:00:00.98 bitrate=   5.1kbits/s speed=0.0295x elapsed=0:00:33.31    \nframe=   60 fps=1.8 q=23.0 size=       1KiB time=00:00:01.00 bitrate=   5.1kbits/s speed=0.0295x elapsed=0:00:33.93    \nframe=   60 fps=1.7 q=23.0 size=       1KiB time=00:00:01.00 bitrate=   5.1kbits/s speed=0.029x elapsed=0:00:34.45    \nframe=   61 fps=1.7 q=10.0 size=       1KiB time=00:00:01.01 bitrate=   5.0kbits/s speed=0.0291x elapsed=0:00:34.97    \nframe=   62 fps=1.7 q=24.0 size=       1KiB time=00:00:01.03 bitrate=   4.9kbits/s speed=0.0291x elapsed=0:00:35.48    \nframe=   62 fps=1.7 q=24.0 size=       1KiB time=00:00:01.03 bitrate=   4.9kbits/s speed=0.0287x elapsed=0:00:36.00    \nframe=   63 fps=1.7 q=18.0 size=       1KiB time=00:00:01.05 bitrate=   4.8kbits/s speed=0.0288x elapsed=0:00:36.51    \nframe=   64 fps=1.7 q=24.0 size=       1KiB time=00:00:01.06 bitrate=   4.7kbits/s speed=0.0288x elapsed=0:00:37.02    \nframe=   65 fps=1.7 q=20.0 size=       1KiB time=00:00:01.08 bitrate=   4.7kbits/s speed=0.0288x elapsed=0:00:37.55    \nframe=   66 fps=1.7 q=23.0 size=       1KiB time=00:00:01.10 bitrate=   4.6kbits/s speed=0.0289x elapsed=0:00:38.06    \nframe=   66 fps=1.7 q=23.0 size=       1KiB time=00:00:01.10 bitrate=   4.6kbits/s speed=0.0285x elapsed=0:00:38.58    \nframe=   67 fps=1.7 q=22.0 size=       1KiB time=00:00:01.11 bitrate=   4.5kbits/s speed=0.0286x elapsed=0:00:39.10    \nframe=   68 fps=1.7 q=23.0 size=       1KiB time=00:00:01.13 bitrate=   4.5kbits/s speed=0.0286x elapsed=0:00:39.61    \nframe=   69 fps=1.7 q=22.0 size=       1KiB time=00:00:01.15 bitrate=   4.4kbits/s speed=0.0287x elapsed=0:00:40.13    \nframe=   70 fps=1.7 q=22.0 size=       1KiB time=00:00:01.16 bitrate=   4.3kbits/s speed=0.0287x elapsed=0:00:40.64    \nframe=   71 fps=1.7 q=23.0 size=       1KiB time=00:00:01.18 bitrate=   4.3kbits/s speed=0.0287x elapsed=0:00:41.16    \nframe=   72 fps=1.7 q=24.0 size=       1KiB time=00:00:01.20 bitrate=   4.2kbits/s speed=0.0288x elapsed=0:00:41.67    \nframe=   72 fps=1.7 q=24.0 size=       1KiB time=00:00:01.20 bitrate=   4.2kbits/s speed=0.0284x elapsed=0:00:42.19    \nframe=   72 fps=1.7 q=24.0 size=       1KiB time=00:00:01.20 bitrate=   4.2kbits/s speed=0.0281x elapsed=0:00:42.71    \nframe=   73 fps=1.7 q=10.0 size=       1KiB time=00:00:01.21 bitrate=   4.2kbits/s speed=0.0282x elapsed=0:00:43.21    \nframe=   74 fps=1.7 q=23.0 size=       1KiB time=00:00:01.23 bitrate=   4.1kbits/s speed=0.0282x elapsed=0:00:43.74    \nframe=   75 fps=1.7 q=19.0 size=       1KiB time=00:00:01.25 bitrate=   4.1kbits/s speed=0.0282x elapsed=0:00:44.26    \nframe=   76 fps=1.7 q=24.0 size=       1KiB time=00:00:01.26 bitrate=   4.0kbits/s speed=0.0283x elapsed=0:00:44.78    \nframe=   76 fps=1.7 q=24.0 size=       1KiB time=00:00:01.26 bitrate=   4.0kbits/s speed=0.028x elapsed=0:00:45.31    \nframe=   77 fps=1.7 q=21.0 size=       1KiB time=00:00:01.28 bitrate=   3.9kbits/s speed=0.028x elapsed=0:00:45.82    \nframe=   78 fps=1.7 q=24.0 size=       1KiB time=00:00:01.30 bitrate=   3.9kbits/s speed=0.028x elapsed=0:00:46.38    \nframe=   79 fps=1.7 q=23.0 size=       1KiB time=00:00:01.31 bitrate=   3.8kbits/s speed=0.0281x elapsed=0:00:46.90    \nframe=   80 fps=1.7 q=25.0 size=       1KiB time=00:00:01.33 bitrate=   3.8kbits/s speed=0.0281x elapsed=0:00:47.43    \nframe=   81 fps=1.7 q=25.0 size=       1KiB time=00:00:01.35 bitrate=   3.8kbits/s speed=0.0281x elapsed=0:00:47.97    \nframe=   82 fps=1.7 q=26.0 size=       1KiB time=00:00:01.36 bitrate=   3.7kbits/s speed=0.0282x elapsed=0:00:48.49    \nframe=   83 fps=1.7 q=24.0 size=       1KiB time=00:00:01.38 bitrate=   3.7kbits/s speed=0.0282x elapsed=0:00:49.04    \nframe=   84 fps=1.7 q=24.0 size=       1KiB time=00:00:01.40 bitrate=   3.6kbits/s speed=0.0282x elapsed=0:00:49.57    \nframe=   84 fps=1.7 q=24.0 size=       1KiB time=00:00:01.40 bitrate=   3.6kbits/s speed=0.0279x elapsed=0:00:50.10    \nframe=   86 fps=1.7 q=24.0 size=       1KiB time=00:00:01.43 bitrate=   3.5kbits/s speed=0.0283x elapsed=0:00:50.61    \nframe=   86 fps=1.7 q=24.0 size=       1KiB time=00:00:01.43 bitrate=   3.5kbits/s speed=0.028x elapsed=0:00:51.14    \nframe=   87 fps=1.7 q=21.0 size=       1KiB time=00:00:01.45 bitrate=   3.5kbits/s speed=0.0281x elapsed=0:00:51.68    \nframe=   88 fps=1.7 q=25.0 size=       1KiB time=00:00:01.46 bitrate=   3.5kbits/s speed=0.0281x elapsed=0:00:52.20    \nframe=   90 fps=1.7 q=24.0 size=       1KiB time=00:00:01.48 bitrate=   3.4kbits/s speed=0.0281x elapsed=0:00:52.72    \nframe=   90 fps=1.7 q=24.0 size=       1KiB time=00:00:01.50 bitrate=   3.4kbits/s speed=0.0281x elapsed=0:00:53.29    \nframe=   91 fps=1.7 q=24.0 size=       1KiB time=00:00:01.51 bitrate=   3.3kbits/s speed=0.0282x elapsed=0:00:53.81    \nframe=   92 fps=1.7 q=24.0 size=       1KiB time=00:00:01.53 bitrate=   3.3kbits/s speed=0.0282x elapsed=0:00:54.32    \nframe=   94 fps=1.7 q=24.0 size=       1KiB time=00:00:01.56 bitrate=   3.2kbits/s speed=0.0286x elapsed=0:00:54.84    \nframe=   95 fps=1.7 q=24.0 size=       1KiB time=00:00:01.58 bitrate=   3.2kbits/s speed=0.0286x elapsed=0:00:55.38    \nframe=   96 fps=1.7 q=23.0 size=       1KiB time=00:00:01.60 bitrate=   3.2kbits/s speed=0.0286x elapsed=0:00:55.97    \nframe=   96 fps=1.7 q=23.0 size=       1KiB time=00:00:01.60 bitrate=   3.2kbits/s speed=0.0283x elapsed=0:00:56.52    \nframe=   97 fps=1.7 q=10.0 size=       1KiB time=00:00:01.61 bitrate=   3.1kbits/s speed=0.0283x elapsed=0:00:57.05    \nframe=   98 fps=1.7 q=23.0 size=       1KiB time=00:00:01.63 bitrate=   3.1kbits/s speed=0.0284x elapsed=0:00:57.59    \nframe=   99 fps=1.7 q=20.0 size=       1KiB time=00:00:01.65 bitrate=   3.1kbits/s speed=0.0284x elapsed=0:00:58.14    \nframe=  100 fps=1.7 q=21.0 size=       1KiB time=00:00:01.66 bitrate=   3.0kbits/s speed=0.0284x elapsed=0:00:58.69    \nframe=  101 fps=1.7 q=21.0 size=       1KiB time=00:00:01.68 bitrate=   3.0kbits/s speed=0.0284x elapsed=0:00:59.23    \nframe=  102 fps=1.7 q=22.0 size=       1KiB time=00:00:01.70 bitrate=   3.0kbits/s speed=0.0284x elapsed=0:00:59.86    \nframe=  103 fps=1.7 q=22.0 size=       1KiB time=00:00:01.71 bitrate=   2.9kbits/s speed=0.0284x elapsed=0:01:00.41    \nframe=  104 fps=1.7 q=23.0 size=       1KiB time=00:00:01.73 bitrate=   2.9kbits/s speed=0.0284x elapsed=0:01:00.95    \nframe=  105 fps=1.7 q=24.0 size=       1KiB time=00:00:01.75 bitrate=   2.9kbits/s speed=0.0285x elapsed=0:01:01.47    \nframe=  106 fps=1.7 q=25.0 size=       1KiB time=00:00:01.76 bitrate=   2.9kbits/s speed=0.0285x elapsed=0:01:01.99    \nframe=  107 fps=1.7 q=25.0 size=       1KiB time=00:00:01.78 bitrate=   2.8kbits/s speed=0.0285x elapsed=0:01:02.52    \nframe=  108 fps=1.7 q=25.0 size=       1KiB time=00:00:01.80 bitrate=   2.8kbits/s speed=0.0285x elapsed=0:01:03.09    \nframe=  109 fps=1.7 q=11.0 size=       1KiB time=00:00:01.80 bitrate=   2.8kbits/s speed=0.0283x elapsed=0:01:03.64    \nframe=  109 fps=1.7 q=11.0 size=       1KiB time=00:00:01.81 bitrate=   2.8kbits/s speed=0.0283x elapsed=0:01:04.17    \nframe=  110 fps=1.7 q=25.0 size=       1KiB time=00:00:01.83 bitrate=   2.8kbits/s speed=0.0283x elapsed=0:01:04.71    \nframe=  111 fps=1.7 q=23.0 size=       1KiB time=00:00:01.85 bitrate=   2.7kbits/s speed=0.0283x elapsed=0:01:05.26    \nframe=  112 fps=1.7 q=26.0 size=       1KiB time=00:00:01.86 bitrate=   2.7kbits/s speed=0.0283x elapsed=0:01:05.86    \nframe=  113 fps=1.7 q=25.0 size=       1KiB time=00:00:01.88 bitrate=   2.7kbits/s speed=0.0283x elapsed=0:01:06.53    \nframe=  114 fps=1.7 q=26.0 size=       1KiB time=00:00:01.90 bitrate=   2.7kbits/s speed=0.0283x elapsed=0:01:07.15    \nframe=  115 fps=1.7 q=25.0 size=       1KiB time=00:00:01.91 bitrate=   2.6kbits/s speed=0.0283x elapsed=0:01:07.78    \nframe=  115 fps=1.7 q=25.0 size=       1KiB time=00:00:01.91 bitrate=   2.6kbits/s speed=0.0281x elapsed=0:01:08.32    \nframe=  116 fps=1.7 q=25.0 size=       1KiB time=00:00:01.93 bitrate=   2.6kbits/s speed=0.0281x elapsed=0:01:08.87    \nframe=  117 fps=1.7 q=25.0 size=       1KiB time=00:00:01.95 bitrate=   2.6kbits/s speed=0.0281x elapsed=0:01:09.43    \nframe=  118 fps=1.7 q=27.0 size=       1KiB time=00:00:01.96 bitrate=   2.6kbits/s speed=0.0281x elapsed=0:01:09.94    \nframe=  118 fps=1.7 q=27.0 size=       1KiB time=00:00:01.96 bitrate=   2.6kbits/s speed=0.0279x elapsed=0:01:10.45    \nframe=  120 fps=1.7 q=25.0 size=       1KiB time=00:00:02.00 bitrate=   2.5kbits/s speed=0.0282x elapsed=0:01:10.97    \nframe=  121 fps=1.7 q=21.0 size=       1KiB time=00:00:02.01 bitrate=   2.5kbits/s speed=0.0282x elapsed=0:01:11.48    \nframe=  122 fps=1.7 q=24.0 size=       1KiB time=00:00:02.03 bitrate=   2.5kbits/s speed=0.0282x elapsed=0:01:12.08    \nframe=  123 fps=1.7 q=23.0 size=       1KiB time=00:00:02.05 bitrate=   2.5kbits/s speed=0.0282x elapsed=0:01:12.61    \nframe=  123 fps=1.7 q=23.0 size=       1KiB time=00:00:02.05 bitrate=   2.5kbits/s speed=0.028x elapsed=0:01:13.12    \nframe=  124 fps=1.7 q=23.0 size=       1KiB time=00:00:02.06 bitrate=   2.5kbits/s speed=0.028x elapsed=0:01:13.67    \nframe=  125 fps=1.7 q=24.0 size=       1KiB time=00:00:02.08 bitrate=   2.4kbits/s speed=0.0281x elapsed=0:01:14.24    \nframe=  125 fps=1.7 q=24.0 size=       1KiB time=00:00:02.08 bitrate=   2.4kbits/s speed=0.0279x elapsed=0:01:14.78    \nframe=  126 fps=1.7 q=24.0 size=       1KiB time=00:00:02.10 bitrate=   2.4kbits/s speed=0.0279x elapsed=0:01:15.31    \nframe=  127 fps=1.7 q=23.0 size=       1KiB time=00:00:02.11 bitrate=   2.4kbits/s speed=0.0279x elapsed=0:01:15.85    \nframe=  128 fps=1.7 q=23.0 size=       1KiB time=00:00:02.13 bitrate=   2.4kbits/s speed=0.0279x elapsed=0:01:16.38    \nframe=  128 fps=1.7 q=23.0 size=       1KiB time=00:00:02.13 bitrate=   2.4kbits/s speed=0.0277x elapsed=0:01:16.90    \nframe=  129 fps=1.7 q=10.0 size=       1KiB time=00:00:02.15 bitrate=   2.4kbits/s speed=0.0278x elapsed=0:01:17.43    \nframe=  130 fps=1.7 q=23.0 size=    2816KiB time=00:00:02.16 bitrate=10647.1kbits/s speed=0.0278x elapsed=0:01:17.96    \nframe=  131 fps=1.7 q=21.0 size=    2816KiB time=00:00:02.18 bitrate=10565.8kbits/s speed=0.0278x elapsed=0:01:18.50    \nframe=  132 fps=1.7 q=24.0 size=    2816KiB time=00:00:02.20 bitrate=10485.8kbits/s speed=0.0278x elapsed=0:01:19.03    \nframe=  133 fps=1.7 q=23.0 size=    2816KiB time=00:00:02.21 bitrate=10406.9kbits/s speed=0.0279x elapsed=0:01:19.57    \nframe=  134 fps=1.7 q=24.0 size=    2816KiB time=00:00:02.23 bitrate=10329.3kbits/s speed=0.0279x elapsed=0:01:20.08    \nframe=  135 fps=1.7 q=24.0 size=    2816KiB time=00:00:02.25 bitrate=10252.7kbits/s speed=0.0279x elapsed=0:01:20.61    \nframe=  136 fps=1.7 q=24.0 size=    2816KiB time=00:00:02.26 bitrate=10177.4kbits/s speed=0.0279x elapsed=0:01:21.13    \nframe=  137 fps=1.7 q=24.0 size=    2816KiB time=00:00:02.28 bitrate=10103.1kbits/s speed=0.028x elapsed=0:01:21.66    \nframe=  139 fps=1.7 q=26.0 size=    2816KiB time=00:00:02.31 bitrate=9957.7kbits/s speed=0.0282x elapsed=0:01:22.17    \nframe=  139 fps=1.7 q=26.0 size=    2816KiB time=00:00:02.31 bitrate=9957.7kbits/s speed=0.028x elapsed=0:01:22.69    \nframe=  140 fps=1.7 q=11.0 size=    2816KiB time=00:00:02.33 bitrate=9886.6kbits/s speed=0.028x elapsed=0:01:23.20    \nframe=  141 fps=1.7 q=25.0 size=    2816KiB time=00:00:02.35 bitrate=9816.5kbits/s speed=0.0281x elapsed=0:01:23.72    \nframe=  143 fps=1.7 q=25.0 size=    2816KiB time=00:00:02.38 bitrate=9679.2kbits/s speed=0.0283x elapsed=0:01:24.24    \nframe=  144 fps=1.7 q=24.0 size=    2816KiB time=00:00:02.40 bitrate=9611.9kbits/s speed=0.0283x elapsed=0:01:24.76    \nframe=  145 fps=1.7 q=25.0 size=    2816KiB time=00:00:02.41 bitrate=9545.7kbits/s speed=0.0283x elapsed=0:01:25.32    \nframe=  147 fps=1.7 q=24.0 size=    2816KiB time=00:00:02.43 bitrate=9480.3kbits/s speed=0.0283x elapsed=0:01:25.84    \nframe=  148 fps=1.7 q=23.0 size=    2816KiB time=00:00:02.46 bitrate=9352.2kbits/s speed=0.0285x elapsed=0:01:26.39    \nframe=  149 fps=1.7 q=24.0 size=    2816KiB time=00:00:02.48 bitrate=9289.4kbits/s speed=0.0286x elapsed=0:01:26.92    \nframe=  150 fps=1.7 q=24.0 size=    2816KiB time=00:00:02.50 bitrate=9227.5kbits/s speed=0.0286x elapsed=0:01:27.46    \nframe=  151 fps=1.7 q=25.0 size=    2816KiB time=00:00:02.51 bitrate=9166.4kbits/s speed=0.0286x elapsed=0:01:28.00    \nframe=  152 fps=1.7 q=11.0 size=    2816KiB time=00:00:02.53 bitrate=9106.1kbits/s speed=0.0286x elapsed=0:01:28.54    \nframe=  154 fps=1.7 q=20.0 size=    2816KiB time=00:00:02.56 bitrate=8987.8kbits/s speed=0.0288x elapsed=0:01:29.06    \nframe=  155 fps=1.7 q=22.0 size=    2816KiB time=00:00:02.58 bitrate=8929.8kbits/s speed=0.0288x elapsed=0:01:29.62    \nframe=  156 fps=1.7 q=21.0 size=    2816KiB time=00:00:02.60 bitrate=8872.6kbits/s speed=0.0288x elapsed=0:01:30.21    \nframe=  157 fps=1.7 q=22.0 size=    2816KiB time=00:00:02.61 bitrate=8816.1kbits/s speed=0.0288x elapsed=0:01:30.76    \nframe=  158 fps=1.7 q=22.0 size=    2816KiB time=00:00:02.63 bitrate=8760.3kbits/s speed=0.0288x elapsed=0:01:31.28    \nframe=  159 fps=1.7 q=23.0 size=    2816KiB time=00:00:02.65 bitrate=8705.2kbits/s speed=0.0289x elapsed=0:01:31.82    \nframe=  161 fps=1.7 q=24.0 size=    2816KiB time=00:00:02.68 bitrate=8597.0kbits/s speed=0.0291x elapsed=0:01:32.35    \nframe=  162 fps=1.7 q=24.0 size=    2816KiB time=00:00:02.70 bitrate=8544.0kbits/s speed=0.0291x elapsed=0:01:32.88    \nframe=  163 fps=1.7 q=24.0 size=    2816KiB time=00:00:02.71 bitrate=8491.5kbits/s speed=0.0291x elapsed=0:01:33.40    \nframe=  164 fps=1.7 q=11.0 size=    2816KiB time=00:00:02.73 bitrate=8439.8kbits/s speed=0.0291x elapsed=0:01:33.97    \nframe=  166 fps=1.8 q=19.0 size=    2816KiB time=00:00:02.76 bitrate=8338.1kbits/s speed=0.0293x elapsed=0:01:34.49    \nframe=  167 fps=1.8 q=21.0 size=    2816KiB time=00:00:02.78 bitrate=8288.1kbits/s speed=0.0293x elapsed=0:01:35.01    \nframe=  168 fps=1.8 q=21.0 size=    2816KiB time=00:00:02.80 bitrate=8238.8kbits/s speed=0.0293x elapsed=0:01:35.53    \nframe=  169 fps=1.8 q=23.0 size=    2816KiB time=00:00:02.81 bitrate=8190.1kbits/s speed=0.0293x elapsed=0:01:36.05    \nframe=  171 fps=1.8 q=24.0 size=    2816KiB time=00:00:02.83 bitrate=8141.9kbits/s speed=0.0293x elapsed=0:01:36.59    \nframe=  172 fps=1.8 q=25.0 size=    2816KiB time=00:00:02.86 bitrate=8047.2kbits/s speed=0.0295x elapsed=0:01:37.15    \nframe=  173 fps=1.8 q=25.0 size=    2816KiB time=00:00:02.88 bitrate=8000.7kbits/s speed=0.0295x elapsed=0:01:37.69    \nframe=  174 fps=1.8 q=26.0 size=    2816KiB time=00:00:02.90 bitrate=7954.7kbits/s speed=0.0295x elapsed=0:01:38.24    \nframe=  175 fps=1.8 q=26.0 size=    2816KiB time=00:00:02.91 bitrate=7909.3kbits/s speed=0.0295x elapsed=0:01:38.79    \nframe=  176 fps=1.8 q=10.0 size=    2816KiB time=00:00:02.93 bitrate=7864.3kbits/s speed=0.0295x elapsed=0:01:39.34    \nframe=  177 fps=1.8 q=27.0 size=    2816KiB time=00:00:02.95 bitrate=7819.9kbits/s speed=0.0295x elapsed=0:01:39.93    \nframe=  179 fps=1.8 q=27.0 size=    2816KiB time=00:00:02.96 bitrate=7776.0kbits/s speed=0.0295x elapsed=0:01:40.46    \nframe=  179 fps=1.8 q=27.0 size=    2816KiB time=00:00:02.98 bitrate=7732.5kbits/s speed=0.0295x elapsed=0:01:41.05    \nframe=  181 fps=1.8 q=28.0 size=    2816KiB time=00:00:03.01 bitrate=7647.1kbits/s speed=0.0297x elapsed=0:01:41.61    \nframe=  182 fps=1.8 q=28.0 size=    2816KiB time=00:00:03.03 bitrate=7605.1kbits/s speed=0.0297x elapsed=0:01:42.17    \nframe=  183 fps=1.8 q=26.0 size=    2816KiB time=00:00:03.05 bitrate=7563.5kbits/s speed=0.0297x elapsed=0:01:42.68    \nframe=  184 fps=1.8 q=26.0 size=    2816KiB time=00:00:03.06 bitrate=7522.4kbits/s speed=0.0297x elapsed=0:01:43.20    \nframe=  185 fps=1.8 q=26.0 size=    2816KiB time=00:00:03.08 bitrate=7481.7kbits/s speed=0.0297x elapsed=0:01:43.72    \nframe=  187 fps=1.8 q=31.0 size=    2816KiB time=00:00:03.11 bitrate=7401.7kbits/s speed=0.0299x elapsed=0:01:44.27    \nframe=  188 fps=1.8 q=13.0 size=    2816KiB time=00:00:03.13 bitrate=7362.3kbits/s speed=0.0299x elapsed=0:01:44.79    \nframe=  189 fps=1.8 q=31.0 size=    2816KiB time=00:00:03.15 bitrate=7323.4kbits/s speed=0.0299x elapsed=0:01:45.31    \nframe=  190 fps=1.8 q=22.0 size=    2816KiB time=00:00:03.16 bitrate=7284.8kbits/s speed=0.0299x elapsed=0:01:45.83    \nframe=  191 fps=1.8 q=20.0 size=    2816KiB time=00:00:03.18 bitrate=7246.7kbits/s speed=0.0299x elapsed=0:01:46.39    \nframe=  193 fps=1.8 q=28.0 size=    2816KiB time=00:00:03.21 bitrate=7171.6kbits/s speed=0.0301x elapsed=0:01:46.91    \nframe=  194 fps=1.8 q=31.0 size=    2816KiB time=00:00:03.23 bitrate=7134.6kbits/s speed=0.0301x elapsed=0:01:47.41    \nframe=  196 fps=1.8 q=31.0 size=    2816KiB time=00:00:03.26 bitrate=7061.8kbits/s speed=0.0303x elapsed=0:01:47.93    \nframe=  197 fps=1.8 q=31.0 size=    2816KiB time=00:00:03.28 bitrate=7026.0kbits/s speed=0.0303x elapsed=0:01:48.45    \nframe=  198 fps=1.8 q=31.0 size=    2816KiB time=00:00:03.30 bitrate=6990.5kbits/s speed=0.0302x elapsed=0:01:49.14    \nframe=  199 fps=1.8 q=32.0 size=    2816KiB time=00:00:03.31 bitrate=6955.4kbits/s speed=0.0302x elapsed=0:01:49.67    \nframe=  200 fps=1.8 q=15.0 size=    2816KiB time=00:00:03.33 bitrate=6920.6kbits/s speed=0.0302x elapsed=0:01:50.20    \nframe=  201 fps=1.8 q=32.0 size=    2816KiB time=00:00:03.35 bitrate=6886.2kbits/s speed=0.0303x elapsed=0:01:50.73    \nframe=  202 fps=1.8 q=27.0 size=    2816KiB time=00:00:03.36 bitrate=6852.1kbits/s speed=0.0303x elapsed=0:01:51.24    \nframe=  203 fps=1.8 q=27.0 size=    2816KiB time=00:00:03.38 bitrate=6818.3kbits/s speed=0.0303x elapsed=0:01:51.77    \nframe=  205 fps=1.8 q=24.0 size=    2816KiB time=00:00:03.41 bitrate=6751.8kbits/s speed=0.0304x elapsed=0:01:52.29    \nframe=  206 fps=1.8 q=22.0 size=    2816KiB time=00:00:03.43 bitrate=6719.0kbits/s speed=0.0304x elapsed=0:01:52.81    \nframe=  208 fps=1.8 q=23.0 size=    2816KiB time=00:00:03.46 bitrate=6654.4kbits/s speed=0.0306x elapsed=0:01:53.35    \nframe=  209 fps=1.8 q=23.0 size=    2816KiB time=00:00:03.48 bitrate=6622.6kbits/s speed=0.0306x elapsed=0:01:53.88    \nframe=  210 fps=1.8 q=22.0 size=    2816KiB time=00:00:03.50 bitrate=6591.0kbits/s speed=0.0306x elapsed=0:01:54.41    \nframe=  211 fps=1.8 q=22.0 size=    2816KiB time=00:00:03.51 bitrate=6559.8kbits/s speed=0.0306x elapsed=0:01:54.94    \nframe=  211 fps=1.8 q=22.0 size=    2816KiB time=00:00:03.51 bitrate=6559.8kbits/s speed=0.0305x elapsed=0:01:55.46    \nframe=  212 fps=1.8 q=6.0 size=    2816KiB time=00:00:03.53 bitrate=6528.9kbits/s speed=0.0305x elapsed=0:01:56.02    \nframe=  213 fps=1.8 q=28.0 size=    2816KiB time=00:00:03.55 bitrate=6498.2kbits/s speed=0.0305x elapsed=0:01:56.54    \nframe=  214 fps=1.8 q=21.0 size=    2816KiB time=00:00:03.56 bitrate=6467.9kbits/s speed=0.0305x elapsed=0:01:57.06    \nframe=  215 fps=1.8 q=28.0 size=    2816KiB time=00:00:03.58 bitrate=6437.8kbits/s speed=0.0305x elapsed=0:01:57.58    \nframe=  217 fps=1.8 q=29.0 size=    2816KiB time=00:00:03.61 bitrate=6378.4kbits/s speed=0.0306x elapsed=0:01:58.11    \nframe=  219 fps=1.8 q=31.0 size=    2816KiB time=00:00:03.65 bitrate=6320.2kbits/s speed=0.0308x elapsed=0:01:58.64    \nframe=  220 fps=1.8 q=31.0 size=    2816KiB time=00:00:03.66 bitrate=6291.5kbits/s speed=0.0308x elapsed=0:01:59.16    \nframe=  222 fps=1.9 q=30.0 size=    2816KiB time=00:00:03.70 bitrate=6234.8kbits/s speed=0.0309x elapsed=0:01:59.68    \nframe=  223 fps=1.9 q=29.0 size=    2816KiB time=00:00:03.71 bitrate=6206.8kbits/s speed=0.0309x elapsed=0:02:00.22    \nframe=  223 fps=1.8 q=29.0 size=    2816KiB time=00:00:03.71 bitrate=6206.8kbits/s speed=0.0308x elapsed=0:02:00.73    \nframe=  225 fps=1.9 q=29.0 size=    2816KiB time=00:00:03.75 bitrate=6151.6kbits/s speed=0.0309x elapsed=0:02:01.27    \nframe=  226 fps=1.9 q=24.0 size=    2816KiB time=00:00:03.76 bitrate=6124.4kbits/s speed=0.0309x elapsed=0:02:01.79    \nframe=  227 fps=1.9 q=26.0 size=    2816KiB time=00:00:03.78 bitrate=6097.4kbits/s speed=0.0309x elapsed=0:02:02.33    \nframe=  228 fps=1.9 q=26.0 size=    2816KiB time=00:00:03.80 bitrate=6070.7kbits/s speed=0.0309x elapsed=0:02:02.84    \nframe=  230 fps=1.9 q=25.0 size=    2816KiB time=00:00:03.81 bitrate=6044.2kbits/s speed=0.0309x elapsed=0:02:03.37    \nframe=  231 fps=1.9 q=24.0 size=    2816KiB time=00:00:03.85 bitrate=5991.9kbits/s speed=0.0311x elapsed=0:02:03.92    \nframe=  234 fps=1.9 q=25.0 size=    2816KiB time=00:00:03.88 bitrate=5940.4kbits/s speed=0.0312x elapsed=0:02:04.51    \nframe=  235 fps=1.9 q=25.0 size=    2816KiB time=00:00:03.91 bitrate=5889.9kbits/s speed=0.0313x elapsed=0:02:05.16    \nframe=  237 fps=1.9 q=19.0 size=    2816KiB time=00:00:03.93 bitrate=5864.9kbits/s speed=0.0313x elapsed=0:02:05.76    \nframe=  238 fps=1.9 q=20.0 size=    2816KiB time=00:00:03.96 bitrate=5815.6kbits/s speed=0.0314x elapsed=0:02:06.46    \nframe=  240 fps=1.9 q=23.0 size=    2816KiB time=00:00:03.98 bitrate=5791.3kbits/s speed=0.0313x elapsed=0:02:07.27    \nframe=  241 fps=1.9 q=23.0 size=    2816KiB time=00:00:04.01 bitrate=5743.2kbits/s speed=0.0314x elapsed=0:02:08.02    \nframe=  243 fps=1.9 q=24.0 size=    2816KiB time=00:00:04.05 bitrate=5696.0kbits/s speed=0.0315x elapsed=0:02:08.77    \nframe=  245 fps=1.9 q=23.0 size=    2816KiB time=00:00:04.08 bitrate=5649.5kbits/s speed=0.0315x elapsed=0:02:09.45    \nframe=  246 fps=1.9 q=10.0 size=    2816KiB time=00:00:04.10 bitrate=5626.5kbits/s speed=0.0315x elapsed=0:02:10.08    \nframe=  248 fps=1.9 q=20.0 size=    2816KiB time=00:00:04.13 bitrate=5581.1kbits/s speed=0.0316x elapsed=0:02:10.70    \nframe=  249 fps=1.9 q=24.0 size=    2816KiB time=00:00:04.15 bitrate=5558.7kbits/s speed=0.0316x elapsed=0:02:11.31    \nframe=  251 fps=1.9 q=25.0 size=    2816KiB time=00:00:04.18 bitrate=5514.4kbits/s speed=0.0317x elapsed=0:02:11.93    \nframe=  253 fps=1.9 q=25.0 size=    2816KiB time=00:00:04.21 bitrate=5470.8kbits/s speed=0.0318x elapsed=0:02:12.62    \nframe=  254 fps=1.9 q=25.0 size=    2816KiB time=00:00:04.23 bitrate=5449.3kbits/s speed=0.0318x elapsed=0:02:13.26    \nframe=  256 fps=1.9 q=25.0 size=    2816KiB time=00:00:04.26 bitrate=5406.7kbits/s speed=0.0319x elapsed=0:02:13.89    \nframe=  256 fps=1.9 q=25.0 size=    2816KiB time=00:00:04.26 bitrate=5406.7kbits/s speed=0.0317x elapsed=0:02:14.58    \nframe=  258 fps=1.9 q=24.0 size=    6144KiB time=00:00:04.30 bitrate=11705.0kbits/s speed=0.0318x elapsed=0:02:15.31    \nframe=  259 fps=1.9 q=17.0 size=    6144KiB time=00:00:04.31 bitrate=11659.8kbits/s speed=0.0317x elapsed=0:02:15.96    \nframe=  261 fps=1.9 q=18.0 size=    6144KiB time=00:00:04.35 bitrate=11570.5kbits/s speed=0.0319x elapsed=0:02:16.53    \nframe=  262 fps=1.9 q=20.0 size=    6144KiB time=00:00:04.36 bitrate=11526.3kbits/s speed=0.0318x elapsed=0:02:17.10    \nframe=  264 fps=1.9 q=20.0 size=    6144KiB time=00:00:04.40 bitrate=11439.0kbits/s speed=0.0319x elapsed=0:02:17.71    \nframe=  266 fps=1.9 q=21.0 size=    6144KiB time=00:00:04.43 bitrate=11353.0kbits/s speed=0.032x elapsed=0:02:18.38    \nframe=  267 fps=1.9 q=20.0 size=    6144KiB time=00:00:04.45 bitrate=11310.5kbits/s speed=0.032x elapsed=0:02:18.92    \nframe=  268 fps=1.9 q=20.0 size=    6144KiB time=00:00:04.46 bitrate=11268.3kbits/s speed=0.032x elapsed=0:02:19.48    \nframe=  270 fps=1.9 q=20.0 size=    6144KiB time=00:00:04.50 bitrate=11184.8kbits/s speed=0.0321x elapsed=0:02:20.23    \nframe=  272 fps=1.9 q=22.0 size=    6144KiB time=00:00:04.53 bitrate=11102.6kbits/s speed=0.0322x elapsed=0:02:20.95    \nframe=  273 fps=1.9 q=22.0 size=    6144KiB time=00:00:04.55 bitrate=11061.9kbits/s speed=0.0321x elapsed=0:02:21.64    \nframe=  275 fps=1.9 q=24.0 size=    6144KiB time=00:00:04.58 bitrate=10981.5kbits/s speed=0.0322x elapsed=0:02:22.29    \nframe=  276 fps=1.9 q=24.0 size=    6144KiB time=00:00:04.60 bitrate=10941.7kbits/s speed=0.0322x elapsed=0:02:22.92    \nframe=  276 fps=1.9 q=24.0 size=    6144KiB time=00:00:04.60 bitrate=10941.7kbits/s speed=0.032x elapsed=0:02:23.60    \nframe=  276 fps=1.9 q=24.0 size=    6144KiB time=00:00:04.60 bitrate=10941.7kbits/s speed=0.0319x elapsed=0:02:24.22    \nframe=  276 fps=1.9 q=24.0 size=    6144KiB time=00:00:04.60 bitrate=10941.7kbits/s speed=0.0318x elapsed=0:02:24.84    \nframe=  276 fps=1.9 q=24.0 size=    6144KiB time=00:00:04.60 bitrate=10941.7kbits/s speed=0.0316x elapsed=0:02:25.52    \nframe=  276 fps=1.9 q=24.0 size=    6144KiB time=00:00:04.60 bitrate=10941.7kbits/s speed=0.0315x elapsed=0:02:26.13    \nframe=  276 fps=1.9 q=24.0 size=    6144KiB time=00:00:04.60 bitrate=10941.7kbits/s speed=0.0313x elapsed=0:02:26.74    \nframe=  276 fps=1.9 q=24.0 size=    6144KiB time=00:00:04.60 bitrate=10941.7kbits/s speed=0.0312x elapsed=0:02:27.36    \nframe=  276 fps=1.9 q=24.0 size=    6144KiB time=00:00:04.60 bitrate=10941.7kbits/s speed=0.0311x elapsed=0:02:27.89    \nframe=  276 fps=1.9 q=24.0 size=    6144KiB time=00:00:04.60 bitrate=10941.7kbits/s speed=0.031x elapsed=0:02:28.60    \nframe=  276 fps=1.8 q=24.0 size=    6144KiB time=00:00:04.60 bitrate=10941.7kbits/s speed=0.0308x elapsed=0:02:29.19    \nframe=  276 fps=1.8 q=24.0 size=    6144KiB time=00:00:04.60 bitrate=10941.7kbits/s speed=0.0307x elapsed=0:02:29.79    \nframe=  276 fps=1.8 q=24.0 size=    6144KiB time=00:00:04.60 bitrate=10941.7kbits/s speed=0.0306x elapsed=0:02:30.42    \n[out#0/webm @ 000001f70e8210c0] video:7330KiB audio:0KiB subtitle:0KiB other streams:0KiB global headers:0KiB muxing overhead: 0.040023%\nframe=  300 fps=2.0 q=27.0 Lsize=    7333KiB time=00:00:05.00 bitrate=12013.8kbits/s speed=0.0331x elapsed=0:02:30.99    \n",
  "seconds": 152.91252398490906,
  "probe_out": {}
}